# xmcd
#
# Track frame offsets: 
#        150
#        13550
#        30742
#        55907
#        77415
#        92617
#        106412
#        119880
#        135120
#        155525
#        171187
#        189220
#        203505
#        221735
#        239585
#
# Disc length: 3414 seconds
#
# Revision: 0
# Processed by: cddbd v1.5.2PL0 Copyright (c) Steve Scherf et al.
# Submitted via: ExactAudioCopyFreeDBPlugin 1.0
#
DISCID=c00d540f
DTITLE=พงษ์เทพ  กระโดนชำนาญ - 2 ทศวรรษกวีศรีชาวไร่ (ทศวรรษที่ 1)
DYEAR=1900
DGENRE=
TTITLE0=คิดถึงบ้าน
TTITLE1=เขาใหญ่
TTITLE2=ลิงทะโมน
TTITLE3=นกเขาไฟ
TTITLE4=หยดน้ำ
TTITLE5=ลำตะคอง
TTITLE6=มือเรียวเกี่ยวรวง
TTITLE7=นกละเมอ
TTITLE8=ใบไม้
TTITLE9=ตรงเส้นขอบฟ้า
TTITLE10=ลมรำเพย
TTITLE11=ยิ้มเหงาๆ
TTITLE12=ด.ญ.ปรางค์
TTITLE13=วันเวลา
TTITLE14=เพียงลมพัดผ่าน
EXTD=
EXTT0=
EXTT1=
EXTT2=
EXTT3=
EXTT4=
EXTT5=
EXTT6=
EXTT7=
EXTT8=
EXTT9=
EXTT10=
EXTT11=
EXTT12=
EXTT13=
EXTT14=
PLAYORDER=
